<?xml version="1.0" encoding="utf-8"?>
<!-- Generator: Adobe Illustrator 23.0.1, SVG Export Plug-In . SVG Version: 6.00 Build 0)  -->
<svg version="1.1" id="Слой_1" xmlns="http://www.w3.org/2000/svg" xmlns:xlink="http://www.w3.org/1999/xlink" x="0px" y="0px"
	 viewBox="0 0 25 25" style="enable-background:new 0 0 25 25;" xml:space="preserve">
<style type="text/css">
	.st0{fill:#E5E6F5;}
</style>
<g>
	<path class="st0" d="M9.7,12l0.3,0.3c0.1,0.1,0.1,0.3,0,0.4L9.7,13c-0.1,0.1-0.3,0.1-0.4,0L9,12.7c-0.1-0.1-0.1-0.3,0-0.4L9.3,12
		C9.4,11.9,9.6,11.9,9.7,12z"/>
	<path class="st0" d="M9.5,11.9c-0.1,0-0.1,0-0.2,0.1L9,12.3c-0.1,0.1-0.1,0.3,0,0.4L9.3,13c0.1,0.1,0.1,0.1,0.2,0.1s0.1,0,0.2-0.1
		l0.3-0.3c0.1-0.1,0.1-0.3,0-0.4L9.7,12C9.6,11.9,9.6,11.9,9.5,11.9L9.5,11.9z"/>
</g>
<g>
	<path class="st0" d="M14.6,7.4l-4.2,4.2L14.6,7.4z"/>
	<path class="st0" d="M14.6,6.9c-0.1,0-0.3,0-0.4,0.1L10,11.3c-0.2,0.2-0.2,0.5,0,0.7c0.1,0.1,0.2,0.1,0.4,0.1s0.3,0,0.4-0.1L15,7.7
		c0.2-0.2,0.2-0.5,0-0.7C14.9,6.9,14.7,6.9,14.6,6.9L14.6,6.9z"/>
</g>
<g>
	<path class="st0" d="M14.3,18L10,13.7c-0.2-0.2-0.2-0.5,0-0.7l0,0c0.2-0.2,0.5-0.2,0.7,0l4.2,4.2c0.2,0.2,0.2,0.5,0,0.7l0,0
		C14.8,18.2,14.5,18.2,14.3,18z"/>
	<path class="st0" d="M10.4,12.9c-0.1,0-0.3,0-0.4,0.1c-0.2,0.2-0.2,0.5,0,0.7l4.2,4.2c0.1,0.1,0.2,0.1,0.4,0.1s0.3,0,0.4-0.1
		c0.2-0.2,0.2-0.5,0-0.7L10.7,13C10.6,12.9,10.5,12.9,10.4,12.9L10.4,12.9z"/>
</g>
</svg>
