<?xml version="1.0" encoding="utf-8"?>
<!-- Generator: Adobe Illustrator 23.0.1, SVG Export Plug-In . SVG Version: 6.00 Build 0)  -->
<svg version="1.1" id="Слой_1" xmlns="http://www.w3.org/2000/svg" xmlns:xlink="http://www.w3.org/1999/xlink" x="0px" y="0px"
	 viewBox="0 0 25 25" style="enable-background:new 0 0 25 25;" xml:space="preserve">
<style type="text/css">
	.st0{fill:#E5E6F5;}
</style>
<g>
	<g>
		<path class="st0" d="M14,12.3l0.3-0.3c0.1-0.1,0.3-0.1,0.4,0l0.3,0.3c0.1,0.1,0.1,0.3,0,0.4L14.7,13c-0.1,0.1-0.3,0.1-0.4,0
			L14,12.7C13.9,12.6,13.9,12.4,14,12.3z"/>
		<path class="st0" d="M14.5,11.9c-0.1,0-0.1,0-0.2,0.1L14,12.3c-0.1,0.1-0.1,0.3,0,0.4l0.3,0.3c0.1,0.1,0.1,0.1,0.2,0.1
			s0.1,0,0.2-0.1l0.3-0.3c0.1-0.1,0.1-0.3,0-0.4L14.7,12C14.7,11.9,14.6,11.9,14.5,11.9L14.5,11.9z"/>
	</g>
	<g>
		<path class="st0" d="M13.3,12L9,7.7C8.9,7.5,8.9,7.2,9,7c0.2-0.2,0.5-0.2,0.7,0l4.2,4.2c0.2,0.2,0.2,0.5,0,0.7
			C13.8,12.2,13.5,12.2,13.3,12z"/>
		<path class="st0" d="M9.4,6.9C9.3,6.9,9.1,6.9,9,7C8.9,7.2,8.9,7.5,9,7.7l4.2,4.2c0.1,0.1,0.2,0.1,0.4,0.1c0.1,0,0.3,0,0.4-0.1
			c0.2-0.2,0.2-0.5,0-0.7L9.8,7C9.7,6.9,9.5,6.9,9.4,6.9L9.4,6.9z"/>
	</g>
	<g>
		<path class="st0" d="M13.3,13c0.2-0.2,0.5-0.2,0.7,0c0.2,0.2,0.2,0.5,0,0.7L9.8,18c-0.2,0.2-0.5,0.2-0.7,0c-0.2-0.2-0.2-0.5,0-0.7
			L13.3,13z"/>
		<path class="st0" d="M13.6,12.9c-0.1,0-0.3,0-0.4,0.1L9,17.3c-0.2,0.2-0.2,0.5,0,0.7c0.1,0.1,0.2,0.1,0.4,0.1c0.1,0,0.3,0,0.4-0.1
			l4.2-4.2c0.2-0.2,0.2-0.5,0-0.7C13.9,12.9,13.8,12.9,13.6,12.9L13.6,12.9z"/>
	</g>
</g>
</svg>
