<?xml version="1.0" encoding="utf-8"?>
<!-- Generator: Adobe Illustrator 24.3.0, SVG Export Plug-In . SVG Version: 6.00 Build 0)  -->
<svg version="1.1" xmlns="http://www.w3.org/2000/svg" xmlns:xlink="http://www.w3.org/1999/xlink" x="0px" y="0px"
	 viewBox="0 0 1000 1000" style="enable-background:new 0 0 1000 1000;" xml:space="preserve">
<style type="text/css">
	.st0{fill:#005286;}
	.st1{fill:none;stroke:#436B8F;stroke-width:150;stroke-miterlimit:10;}
	.st2{fill:none;stroke:#FFFFFF;stroke-width:150;stroke-miterlimit:10;}
</style>
<g id="Слой_1">
	<circle class="st0" cx="500" cy="500" r="500"/>
</g>
<g id="контент">
	<path id="тень" class="st1" d="M779.82,742.72c-55.05,73.51-138.21,120.34-231.25,120.34
		c-165.75,0-300.12-148.61-300.12-331.94s134.37-331.94,300.12-331.94c9.21,0,18.32,0.46,27.32,1.36
		c84.65,8.45,159.15,55.77,208.82,125.69"/>
	<path id="Буква" class="st2" d="M760.55,725.3c-60,74.43-150.63,121.84-252.04,121.84c-180.65,0-327.1-150.46-327.1-336.06
		s146.45-336.06,327.1-336.06c10.04,0,19.97,0.46,29.78,1.37c92.25,8.55,173.46,56.46,227.59,127.26"/>
</g>
</svg>
