<?xml version="1.0" encoding="utf-8"?>
<!-- Generator: Adobe Illustrator 23.0.1, SVG Export Plug-In . SVG Version: 6.00 Build 0)  -->
<svg version="1.1" id="Слой_1" xmlns="http://www.w3.org/2000/svg" xmlns:xlink="http://www.w3.org/1999/xlink" x="0px" y="0px"
	 viewBox="0 0 25 25" style="enable-background:new 0 0 25 25;" xml:space="preserve">
<style type="text/css">
	.st0{fill:#B3B3B3;}
	.st1{fill:#999999;}
	.st2{fill:#808080;}
</style>
<g>
	<rect x="1.5" y="3.5" class="st0" width="22" height="18"/>
	<path class="st1" d="M23,4v17H2V4H23 M24,3H1v19h23V3L24,3z"/>
</g>
<g>
	<rect x="3.5" y="7.5" class="st2" width="3" height="3"/>
	<path class="st2" d="M6,8v2H4V8H6 M7,7H3v4h4V7L7,7z"/>
</g>
<g>
	<rect x="8.5" y="7.5" class="st2" width="3" height="3"/>
	<path class="st2" d="M11,8v2H9V8H11 M12,7H8v4h4V7L12,7z"/>
</g>
<g>
	<rect x="13.5" y="7.5" class="st2" width="3" height="3"/>
	<path class="st2" d="M16,8v2h-2V8H16 M17,7h-4v4h4V7L17,7z"/>
</g>
<g>
	<rect x="18.5" y="7.5" class="st2" width="3" height="3"/>
	<path class="st2" d="M21,8v2h-2V8H21 M22,7h-4v4h4V7L22,7z"/>
</g>
<g>
	<rect x="3.5" y="14.5" class="st2" width="3" height="3"/>
	<path class="st2" d="M6,15v2H4v-2H6 M7,14H3v4h4V14L7,14z"/>
</g>
<g>
	<rect x="8.5" y="14.5" class="st2" width="3" height="3"/>
	<path class="st2" d="M11,15v2H9v-2H11 M12,14H8v4h4V14L12,14z"/>
</g>
<g>
	<rect x="13.5" y="14.5" class="st2" width="3" height="3"/>
	<path class="st2" d="M16,15v2h-2v-2H16 M17,14h-4v4h4V14L17,14z"/>
</g>
<g>
	<rect x="18.5" y="14.5" class="st2" width="3" height="3"/>
	<path class="st2" d="M21,15v2h-2v-2H21 M22,14h-4v4h4V14L22,14z"/>
</g>
</svg>
