<?xml version="1.0" encoding="utf-8"?>
<!-- Generator: Adobe Illustrator 23.0.1, SVG Export Plug-In . SVG Version: 6.00 Build 0)  -->
<svg version="1.1" id="Слой_1" xmlns="http://www.w3.org/2000/svg" xmlns:xlink="http://www.w3.org/1999/xlink" x="0px" y="0px"
	 viewBox="0 0 25 25" style="enable-background:new 0 0 25 25;" xml:space="preserve">
<style type="text/css">
	.st0{fill:#B3B3B3;}
	.st1{fill:#999999;}
	.st2{fill:#808080;}
</style>
<g>
	<rect x="1.5" y="3.5" class="st0" width="22" height="18"/>
	<path class="st1" d="M23,4v17H2V4H23 M24,3H1v19h23V3L24,3z"/>
</g>
<g>
	<rect x="3" y="5" class="st2" width="19" height="1"/>
	<polygon class="st2" points="22,5 3,5 3,6 22,6 22,5 	"/>
</g>
<g>
	<rect x="3" y="9" class="st2" width="19" height="1"/>
	<polygon class="st2" points="22,9 3,9 3,10 22,10 22,9 	"/>
</g>
<g>
	<rect x="3" y="7" class="st2" width="19" height="1"/>
	<polygon class="st2" points="22,7 3,7 3,8 22,8 22,7 	"/>
</g>
<g>
	<rect x="3" y="11" class="st2" width="19" height="1"/>
	<polygon class="st2" points="22,11 3,11 3,12 22,12 22,11 	"/>
</g>
<g>
	<rect x="3" y="13" class="st2" width="19" height="1"/>
	<polygon class="st2" points="22,13 3,13 3,14 22,14 22,13 	"/>
</g>
<g>
	<rect x="3" y="15" class="st2" width="19" height="1"/>
	<polygon class="st2" points="22,15 3,15 3,16 22,16 22,15 	"/>
</g>
<g>
	<rect x="3" y="17" class="st2" width="19" height="1"/>
	<polygon class="st2" points="22,17 3,17 3,18 22,18 22,17 	"/>
</g>
<g>
	<rect x="3" y="19" class="st2" width="19" height="1"/>
	<polygon class="st2" points="22,19 3,19 3,20 22,20 22,19 	"/>
</g>
</svg>
