<?xml version="1.0" encoding="utf-8"?>
<!-- Generator: Adobe Illustrator 23.0.1, SVG Export Plug-In . SVG Version: 6.00 Build 0)  -->
<svg version="1.1" xmlns="http://www.w3.org/2000/svg" xmlns:xlink="http://www.w3.org/1999/xlink" x="0px" y="0px"
	 viewBox="0 0 50 50" style="enable-background:new 0 0 50 50;" xml:space="preserve">
<style type="text/css">
	.st0{fill:#E5E6F5;}
	.st1{fill:#FFFFFF;}
	.st2{fill:#E5E6F5;stroke:#FFFFFF;stroke-miterlimit:10;}
	.st3{fill:#BDCCD4;}
	.st4{fill:#BDCCD4;stroke:#BDCCD4;stroke-width:15;stroke-miterlimit:10;}
</style>
<g id="Слой_1">
	<g>
		<circle class="st0" cx="25" cy="25" r="24.5"/>
		<path class="st1" d="M25,1c13.2,0,24,10.8,24,24S38.2,49,25,49S1,38.2,1,25S11.8,1,25,1 M25,0C11.2,0,0,11.2,0,25s11.2,25,25,25
			s25-11.2,25-25S38.8,0,25,0L25,0z"/>
	</g>
</g>
<g id="Слой_2">
	<path class="st2" d="M25,25"/>
	<g>
		<path class="st3" d="M9,24.6c-0.1,3.8,1.3,7.6,3.8,10.5c2.5,2.9,6,4.8,9.7,5.3c3.7,0.5,7.6-0.6,10.5-2.8c3-2.2,5.1-5.4,6-8.9
			l1.9,0.6c-1,3.9-3.4,7.5-6.7,9.9c-3.3,2.4-7.6,3.7-11.8,3.2c-4.2-0.5-8.2-2.6-11-5.8C8.7,33.5,7,29.3,7,25c0-4.3,1.7-8.5,4.5-11.7
			c2.8-3.2,6.8-5.3,11-5.8c4.2-0.5,8.5,0.7,11.8,3.2c3.3,2.4,5.7,6,6.7,9.9l-1.9,0.6c-0.9-3.4-2.9-6.6-5.8-8.8
			c-2.9-2.2-6.6-3.3-10.3-2.9c-3.7,0.4-7.2,2.2-9.7,4.9C10.7,17.2,9.1,20.9,9,24.6z M9,24.6c0.1-3.8,1.6-7.5,4.1-10.3
			c2.5-2.8,6-4.9,9.8-5.4c3.8-0.6,7.8,0.4,11,2.5c3.3,2.1,5.8,5.4,7.1,9.2l-1.9,0.6c-1.1-3.4-3.4-6.3-6.4-8.2
			c-1.5-0.9-3.1-1.6-4.7-2c-1.7-0.4-3.4-0.4-5-0.1c-6.7,1-12.1,7.4-11.9,14c-0.2,6.7,5.2,13,11.9,14c3.3,0.5,6.8-0.2,9.8-2.1
			c2.9-1.9,5.2-4.8,6.3-8.2l1.9,0.6c-1.2,3.9-3.9,7.2-7.2,9.3c-3.3,2.1-7.4,3-11.3,2.3c-3.9-0.6-7.3-2.8-9.8-5.8
			C10.2,32.3,8.9,28.5,9,24.6z"/>
	</g>
	<circle class="st4" cx="25" cy="25" r="5"/>
	<g>
		<circle class="st0" cx="25" cy="25" r="9.5"/>
		<g>
			<path class="st0" d="M25,16c5,0,9,4,9,9s-4,9-9,9s-9-4-9-9S20,16,25,16 M25,15c-5.5,0-10,4.5-10,10s4.5,10,10,10s10-4.5,10-10
				S30.5,15,25,15L25,15z"/>
		</g>
	</g>
</g>
</svg>
